<mxfile host="app.diagrams.net" modified="2024-06-30T18:03:05.425Z" agent="Mozilla/5.0 (Windows NT 10.0; Win64; x64) AppleWebKit/537.36 (KHTML, like Gecko) Chrome/126.0.0.0 Safari/537.36" etag="ULHyFJSwzlpCajRyj5-B" version="24.6.4" type="device">
  <diagram name="Page-1" id="tj1NQj6rH_uR0QdHvFrn">
    <mxGraphModel dx="1050" dy="596" grid="1" gridSize="10" guides="1" tooltips="1" connect="1" arrows="1" fold="1" page="1" pageScale="1" pageWidth="1100" pageHeight="850" math="0" shadow="0">
      <root>
        <mxCell id="0" />
        <mxCell id="1" parent="0" />
        <mxCell id="7STw4wD0k3W931YjQMz1-1" value="Admin_Management" style="whiteSpace=wrap;strokeWidth=2;verticalAlign=top;" vertex="1" parent="1">
          <mxGeometry x="32" y="2300" width="272" height="500" as="geometry" />
        </mxCell>
        <mxCell id="7STw4wD0k3W931YjQMz1-2" value="Admin manages users" style="whiteSpace=wrap;strokeWidth=2;" vertex="1" parent="1">
          <mxGeometry x="84" y="2409" width="169" height="33" as="geometry" />
        </mxCell>
        <mxCell id="7STw4wD0k3W931YjQMz1-3" value="User writes a review" style="whiteSpace=wrap;strokeWidth=2;" vertex="1" parent="1">
          <mxGeometry x="87" y="2325" width="163" height="33" as="geometry" />
        </mxCell>
        <mxCell id="7STw4wD0k3W931YjQMz1-4" value="Admin manages products" style="whiteSpace=wrap;strokeWidth=2;" vertex="1" parent="1">
          <mxGeometry x="71" y="2492" width="195" height="33" as="geometry" />
        </mxCell>
        <mxCell id="7STw4wD0k3W931YjQMz1-5" value="Admin manages orders" style="whiteSpace=wrap;strokeWidth=2;" vertex="1" parent="1">
          <mxGeometry x="79" y="2576" width="178" height="33" as="geometry" />
        </mxCell>
        <mxCell id="7STw4wD0k3W931YjQMz1-6" value="Admin manages reviews" style="whiteSpace=wrap;strokeWidth=2;" vertex="1" parent="1">
          <mxGeometry x="75" y="2659" width="187" height="33" as="geometry" />
        </mxCell>
        <mxCell id="7STw4wD0k3W931YjQMz1-7" value="Admin manages deliveries" style="whiteSpace=wrap;strokeWidth=2;" vertex="1" parent="1">
          <mxGeometry x="67" y="2742" width="202" height="33" as="geometry" />
        </mxCell>
        <mxCell id="7STw4wD0k3W931YjQMz1-8" value="Delivery_Process" style="whiteSpace=wrap;strokeWidth=2;verticalAlign=top;" vertex="1" parent="1">
          <mxGeometry x="20" y="1557" width="582" height="694" as="geometry" />
        </mxCell>
        <mxCell id="7STw4wD0k3W931YjQMz1-9" value="DeliveryPerson updates delivery status" style="whiteSpace=wrap;strokeWidth=2;" vertex="1" parent="1">
          <mxGeometry x="149" y="1665" width="292" height="33" as="geometry" />
        </mxCell>
        <mxCell id="7STw4wD0k3W931YjQMz1-10" value="View Order Status and Estimated Delivery" style="whiteSpace=wrap;strokeWidth=2;" vertex="1" parent="1">
          <mxGeometry x="136" y="1582" width="316" height="33" as="geometry" />
        </mxCell>
        <mxCell id="7STw4wD0k3W931YjQMz1-11" value="Order Out for Delivery" style="whiteSpace=wrap;strokeWidth=2;" vertex="1" parent="1">
          <mxGeometry x="206" y="1749" width="176" height="33" as="geometry" />
        </mxCell>
        <mxCell id="7STw4wD0k3W931YjQMz1-12" value="DeliveryPerson marks as delivered" style="whiteSpace=wrap;strokeWidth=2;" vertex="1" parent="1">
          <mxGeometry x="165" y="1832" width="260" height="33" as="geometry" />
        </mxCell>
        <mxCell id="7STw4wD0k3W931YjQMz1-13" value="Collect OTP from User" style="whiteSpace=wrap;strokeWidth=2;" vertex="1" parent="1">
          <mxGeometry x="207" y="1915" width="176" height="33" as="geometry" />
        </mxCell>
        <mxCell id="7STw4wD0k3W931YjQMz1-14" value="Verify OTP" style="rhombus;strokeWidth=2;whiteSpace=wrap;" vertex="1" parent="1">
          <mxGeometry x="232" y="1999" width="125" height="125" as="geometry" />
        </mxCell>
        <mxCell id="7STw4wD0k3W931YjQMz1-15" value="Confirm Delivery" style="whiteSpace=wrap;strokeWidth=2;" vertex="1" parent="1">
          <mxGeometry x="100" y="2192" width="136" height="33" as="geometry" />
        </mxCell>
        <mxCell id="7STw4wD0k3W931YjQMz1-16" value="OTP Verification Failed Notification" style="whiteSpace=wrap;strokeWidth=2;" vertex="1" parent="1">
          <mxGeometry x="286" y="2192" width="270" height="33" as="geometry" />
        </mxCell>
        <mxCell id="7STw4wD0k3W931YjQMz1-17" value="Checkout_Process" style="whiteSpace=wrap;strokeWidth=2;verticalAlign=top;" vertex="1" parent="1">
          <mxGeometry x="189" y="687" width="456" height="569" as="geometry" />
        </mxCell>
        <mxCell id="7STw4wD0k3W931YjQMz1-18" value="Select Shipping Address" style="whiteSpace=wrap;strokeWidth=2;" vertex="1" parent="1">
          <mxGeometry x="307" y="796" width="183" height="33" as="geometry" />
        </mxCell>
        <mxCell id="7STw4wD0k3W931YjQMz1-19" value="User checks out" style="whiteSpace=wrap;strokeWidth=2;" vertex="1" parent="1">
          <mxGeometry x="334" y="712" width="128" height="33" as="geometry" />
        </mxCell>
        <mxCell id="7STw4wD0k3W931YjQMz1-20" value="Select Payment Method" style="whiteSpace=wrap;strokeWidth=2;" vertex="1" parent="1">
          <mxGeometry x="307" y="879" width="183" height="33" as="geometry" />
        </mxCell>
        <mxCell id="7STw4wD0k3W931YjQMz1-21" value="Process Payment" style="rhombus;strokeWidth=2;whiteSpace=wrap;" vertex="1" parent="1">
          <mxGeometry x="315" y="962" width="167" height="167" as="geometry" />
        </mxCell>
        <mxCell id="7STw4wD0k3W931YjQMz1-22" value="Place Order" style="whiteSpace=wrap;strokeWidth=2;" vertex="1" parent="1">
          <mxGeometry x="244" y="1198" width="100" height="33" as="geometry" />
        </mxCell>
        <mxCell id="7STw4wD0k3W931YjQMz1-23" value="Payment Failed Notification" style="whiteSpace=wrap;strokeWidth=2;" vertex="1" parent="1">
          <mxGeometry x="395" y="1198" width="215" height="33" as="geometry" />
        </mxCell>
        <mxCell id="7STw4wD0k3W931YjQMz1-24" value="User Registration" style="whiteSpace=wrap;strokeWidth=2;" vertex="1" parent="1">
          <mxGeometry x="330" y="20" width="137" height="33" as="geometry" />
        </mxCell>
        <mxCell id="7STw4wD0k3W931YjQMz1-25" value="User Login" style="whiteSpace=wrap;strokeWidth=2;" vertex="1" parent="1">
          <mxGeometry x="353" y="103" width="90" height="33" as="geometry" />
        </mxCell>
        <mxCell id="7STw4wD0k3W931YjQMz1-26" value="Browse Products" style="whiteSpace=wrap;strokeWidth=2;" vertex="1" parent="1">
          <mxGeometry x="332" y="187" width="132" height="33" as="geometry" />
        </mxCell>
        <mxCell id="7STw4wD0k3W931YjQMz1-27" value="Search Products" style="whiteSpace=wrap;strokeWidth=2;" vertex="1" parent="1">
          <mxGeometry x="334" y="270" width="129" height="33" as="geometry" />
        </mxCell>
        <mxCell id="7STw4wD0k3W931YjQMz1-28" value="View Product Details" style="whiteSpace=wrap;strokeWidth=2;" vertex="1" parent="1">
          <mxGeometry x="316" y="354" width="164" height="33" as="geometry" />
        </mxCell>
        <mxCell id="7STw4wD0k3W931YjQMz1-29" value="User adds products to cart" style="whiteSpace=wrap;strokeWidth=2;" vertex="1" parent="1">
          <mxGeometry x="296" y="437" width="205" height="33" as="geometry" />
        </mxCell>
        <mxCell id="7STw4wD0k3W931YjQMz1-30" value="Update Cart Quantity" style="whiteSpace=wrap;strokeWidth=2;" vertex="1" parent="1">
          <mxGeometry x="313" y="520" width="170" height="33" as="geometry" />
        </mxCell>
        <mxCell id="7STw4wD0k3W931YjQMz1-31" value="User removes products from cart" style="whiteSpace=wrap;strokeWidth=2;" vertex="1" parent="1">
          <mxGeometry x="273" y="604" width="251" height="33" as="geometry" />
        </mxCell>
        <mxCell id="7STw4wD0k3W931YjQMz1-32" value="Generate OTP" style="whiteSpace=wrap;strokeWidth=2;" vertex="1" parent="1">
          <mxGeometry x="237" y="1307" width="116" height="33" as="geometry" />
        </mxCell>
        <mxCell id="7STw4wD0k3W931YjQMz1-33" value="Order Placed Confirmation" style="whiteSpace=wrap;strokeWidth=2;" vertex="1" parent="1">
          <mxGeometry x="191" y="1390" width="207" height="33" as="geometry" />
        </mxCell>
        <mxCell id="7STw4wD0k3W931YjQMz1-34" value="User tracks order" style="whiteSpace=wrap;strokeWidth=2;" vertex="1" parent="1">
          <mxGeometry x="225" y="1473" width="140" height="33" as="geometry" />
        </mxCell>
        <mxCell id="7STw4wD0k3W931YjQMz1-35" value="" style="curved=1;startArrow=none;endArrow=block;exitX=0.5;exitY=1.01;entryX=0.5;entryY=0.01;rounded=0;" edge="1" parent="1" source="7STw4wD0k3W931YjQMz1-24" target="7STw4wD0k3W931YjQMz1-25">
          <mxGeometry relative="1" as="geometry">
            <Array as="points" />
          </mxGeometry>
        </mxCell>
        <mxCell id="7STw4wD0k3W931YjQMz1-36" value="" style="curved=1;startArrow=none;endArrow=block;exitX=0.5;exitY=1.02;entryX=0.5;entryY=-0.01;rounded=0;" edge="1" parent="1" source="7STw4wD0k3W931YjQMz1-25" target="7STw4wD0k3W931YjQMz1-26">
          <mxGeometry relative="1" as="geometry">
            <Array as="points" />
          </mxGeometry>
        </mxCell>
        <mxCell id="7STw4wD0k3W931YjQMz1-37" value="" style="curved=1;startArrow=none;endArrow=block;exitX=0.5;exitY=1.01;entryX=0.5;entryY=0.01;rounded=0;" edge="1" parent="1" source="7STw4wD0k3W931YjQMz1-26" target="7STw4wD0k3W931YjQMz1-27">
          <mxGeometry relative="1" as="geometry">
            <Array as="points" />
          </mxGeometry>
        </mxCell>
        <mxCell id="7STw4wD0k3W931YjQMz1-38" value="" style="curved=1;startArrow=none;endArrow=block;exitX=0.5;exitY=1.02;entryX=0.5;entryY=-0.01;rounded=0;" edge="1" parent="1" source="7STw4wD0k3W931YjQMz1-27" target="7STw4wD0k3W931YjQMz1-28">
          <mxGeometry relative="1" as="geometry">
            <Array as="points" />
          </mxGeometry>
        </mxCell>
        <mxCell id="7STw4wD0k3W931YjQMz1-39" value="" style="curved=1;startArrow=none;endArrow=block;exitX=0.5;exitY=1;entryX=0.5;entryY=0;rounded=0;" edge="1" parent="1" source="7STw4wD0k3W931YjQMz1-28" target="7STw4wD0k3W931YjQMz1-29">
          <mxGeometry relative="1" as="geometry">
            <Array as="points" />
          </mxGeometry>
        </mxCell>
        <mxCell id="7STw4wD0k3W931YjQMz1-40" value="" style="curved=1;startArrow=none;endArrow=block;exitX=0.5;exitY=1.01;entryX=0.5;entryY=0.01;rounded=0;" edge="1" parent="1" source="7STw4wD0k3W931YjQMz1-29" target="7STw4wD0k3W931YjQMz1-30">
          <mxGeometry relative="1" as="geometry">
            <Array as="points" />
          </mxGeometry>
        </mxCell>
        <mxCell id="7STw4wD0k3W931YjQMz1-41" value="" style="curved=1;startArrow=none;endArrow=block;exitX=0.5;exitY=1.02;entryX=0.5;entryY=-0.01;rounded=0;" edge="1" parent="1" source="7STw4wD0k3W931YjQMz1-30" target="7STw4wD0k3W931YjQMz1-31">
          <mxGeometry relative="1" as="geometry">
            <Array as="points" />
          </mxGeometry>
        </mxCell>
        <mxCell id="7STw4wD0k3W931YjQMz1-42" value="" style="curved=1;startArrow=none;endArrow=block;exitX=0.5;exitY=1.01;entryX=0.5;entryY=0.01;rounded=0;" edge="1" parent="1" source="7STw4wD0k3W931YjQMz1-31" target="7STw4wD0k3W931YjQMz1-19">
          <mxGeometry relative="1" as="geometry">
            <Array as="points" />
          </mxGeometry>
        </mxCell>
        <mxCell id="7STw4wD0k3W931YjQMz1-43" value="" style="curved=1;startArrow=none;endArrow=block;exitX=0.5;exitY=1.02;entryX=0.5;entryY=-0.01;rounded=0;" edge="1" parent="1" source="7STw4wD0k3W931YjQMz1-19" target="7STw4wD0k3W931YjQMz1-18">
          <mxGeometry relative="1" as="geometry">
            <Array as="points" />
          </mxGeometry>
        </mxCell>
        <mxCell id="7STw4wD0k3W931YjQMz1-44" value="" style="curved=1;startArrow=none;endArrow=block;exitX=0.5;exitY=1;entryX=0.5;entryY=0;rounded=0;" edge="1" parent="1" source="7STw4wD0k3W931YjQMz1-18" target="7STw4wD0k3W931YjQMz1-20">
          <mxGeometry relative="1" as="geometry">
            <Array as="points" />
          </mxGeometry>
        </mxCell>
        <mxCell id="7STw4wD0k3W931YjQMz1-45" value="" style="curved=1;startArrow=none;endArrow=block;exitX=0.5;exitY=1.01;entryX=0.5;entryY=0;rounded=0;" edge="1" parent="1" source="7STw4wD0k3W931YjQMz1-20" target="7STw4wD0k3W931YjQMz1-21">
          <mxGeometry relative="1" as="geometry">
            <Array as="points" />
          </mxGeometry>
        </mxCell>
        <mxCell id="7STw4wD0k3W931YjQMz1-46" value="Successful" style="curved=1;startArrow=none;endArrow=block;exitX=0.06;exitY=1;entryX=0.5;entryY=0.01;rounded=0;" edge="1" parent="1" source="7STw4wD0k3W931YjQMz1-21" target="7STw4wD0k3W931YjQMz1-22">
          <mxGeometry relative="1" as="geometry">
            <Array as="points">
              <mxPoint x="294" y="1164" />
            </Array>
          </mxGeometry>
        </mxCell>
        <mxCell id="7STw4wD0k3W931YjQMz1-47" value="Failed" style="curved=1;startArrow=none;endArrow=block;exitX=0.94;exitY=1;entryX=0.5;entryY=0.01;rounded=0;" edge="1" parent="1" source="7STw4wD0k3W931YjQMz1-21" target="7STw4wD0k3W931YjQMz1-23">
          <mxGeometry relative="1" as="geometry">
            <Array as="points">
              <mxPoint x="502" y="1164" />
            </Array>
          </mxGeometry>
        </mxCell>
        <mxCell id="7STw4wD0k3W931YjQMz1-48" value="" style="curved=1;startArrow=none;endArrow=block;exitX=0.5;exitY=1.02;entryX=0.5;entryY=-0.01;rounded=0;" edge="1" parent="1" source="7STw4wD0k3W931YjQMz1-22" target="7STw4wD0k3W931YjQMz1-32">
          <mxGeometry relative="1" as="geometry">
            <Array as="points" />
          </mxGeometry>
        </mxCell>
        <mxCell id="7STw4wD0k3W931YjQMz1-49" value="" style="curved=1;startArrow=none;endArrow=block;exitX=0.5;exitY=1;entryX=0.5;entryY=0;rounded=0;" edge="1" parent="1" source="7STw4wD0k3W931YjQMz1-32" target="7STw4wD0k3W931YjQMz1-33">
          <mxGeometry relative="1" as="geometry">
            <Array as="points" />
          </mxGeometry>
        </mxCell>
        <mxCell id="7STw4wD0k3W931YjQMz1-50" value="" style="curved=1;startArrow=none;endArrow=block;exitX=0.5;exitY=1.01;entryX=0.5;entryY=0.01;rounded=0;" edge="1" parent="1" source="7STw4wD0k3W931YjQMz1-33" target="7STw4wD0k3W931YjQMz1-34">
          <mxGeometry relative="1" as="geometry">
            <Array as="points" />
          </mxGeometry>
        </mxCell>
        <mxCell id="7STw4wD0k3W931YjQMz1-51" value="" style="curved=1;startArrow=none;endArrow=block;exitX=0.5;exitY=1.02;entryX=0.5;entryY=-0.01;rounded=0;" edge="1" parent="1" source="7STw4wD0k3W931YjQMz1-34" target="7STw4wD0k3W931YjQMz1-10">
          <mxGeometry relative="1" as="geometry">
            <Array as="points" />
          </mxGeometry>
        </mxCell>
        <mxCell id="7STw4wD0k3W931YjQMz1-52" value="" style="curved=1;startArrow=none;endArrow=block;exitX=0.5;exitY=1.01;entryX=0.5;entryY=0.01;rounded=0;" edge="1" parent="1" source="7STw4wD0k3W931YjQMz1-10" target="7STw4wD0k3W931YjQMz1-9">
          <mxGeometry relative="1" as="geometry">
            <Array as="points" />
          </mxGeometry>
        </mxCell>
        <mxCell id="7STw4wD0k3W931YjQMz1-53" value="" style="curved=1;startArrow=none;endArrow=block;exitX=0.5;exitY=1.02;entryX=0.5;entryY=-0.01;rounded=0;" edge="1" parent="1" source="7STw4wD0k3W931YjQMz1-9" target="7STw4wD0k3W931YjQMz1-11">
          <mxGeometry relative="1" as="geometry">
            <Array as="points" />
          </mxGeometry>
        </mxCell>
        <mxCell id="7STw4wD0k3W931YjQMz1-54" value="" style="curved=1;startArrow=none;endArrow=block;exitX=0.5;exitY=1;entryX=0.5;entryY=0;rounded=0;" edge="1" parent="1" source="7STw4wD0k3W931YjQMz1-11" target="7STw4wD0k3W931YjQMz1-12">
          <mxGeometry relative="1" as="geometry">
            <Array as="points" />
          </mxGeometry>
        </mxCell>
        <mxCell id="7STw4wD0k3W931YjQMz1-55" value="" style="curved=1;startArrow=none;endArrow=block;exitX=0.5;exitY=1.01;entryX=0.5;entryY=0.01;rounded=0;" edge="1" parent="1" source="7STw4wD0k3W931YjQMz1-12" target="7STw4wD0k3W931YjQMz1-13">
          <mxGeometry relative="1" as="geometry">
            <Array as="points" />
          </mxGeometry>
        </mxCell>
        <mxCell id="7STw4wD0k3W931YjQMz1-56" value="" style="curved=1;startArrow=none;endArrow=block;exitX=0.5;exitY=1.02;entryX=0.5;entryY=0;rounded=0;" edge="1" parent="1" source="7STw4wD0k3W931YjQMz1-13" target="7STw4wD0k3W931YjQMz1-14">
          <mxGeometry relative="1" as="geometry">
            <Array as="points" />
          </mxGeometry>
        </mxCell>
        <mxCell id="7STw4wD0k3W931YjQMz1-57" value="Verified" style="curved=1;startArrow=none;endArrow=block;exitX=0;exitY=0.88;entryX=0.5;entryY=0;rounded=0;" edge="1" parent="1" source="7STw4wD0k3W931YjQMz1-14" target="7STw4wD0k3W931YjQMz1-15">
          <mxGeometry relative="1" as="geometry">
            <Array as="points">
              <mxPoint x="168" y="2158" />
            </Array>
          </mxGeometry>
        </mxCell>
        <mxCell id="7STw4wD0k3W931YjQMz1-58" value="Failed" style="curved=1;startArrow=none;endArrow=block;exitX=1;exitY=0.88;entryX=0.5;entryY=0;rounded=0;" edge="1" parent="1" source="7STw4wD0k3W931YjQMz1-14" target="7STw4wD0k3W931YjQMz1-16">
          <mxGeometry relative="1" as="geometry">
            <Array as="points">
              <mxPoint x="421" y="2158" />
            </Array>
          </mxGeometry>
        </mxCell>
        <mxCell id="7STw4wD0k3W931YjQMz1-59" value="" style="curved=1;startArrow=none;endArrow=block;exitX=0.5;exitY=1.01;entryX=0.5;entryY=0.01;rounded=0;" edge="1" parent="1" source="7STw4wD0k3W931YjQMz1-15" target="7STw4wD0k3W931YjQMz1-3">
          <mxGeometry relative="1" as="geometry">
            <Array as="points" />
          </mxGeometry>
        </mxCell>
        <mxCell id="7STw4wD0k3W931YjQMz1-60" value="" style="curved=1;startArrow=none;endArrow=block;exitX=0.5;exitY=1.02;entryX=0.5;entryY=-0.01;rounded=0;" edge="1" parent="1" source="7STw4wD0k3W931YjQMz1-3" target="7STw4wD0k3W931YjQMz1-2">
          <mxGeometry relative="1" as="geometry">
            <Array as="points" />
          </mxGeometry>
        </mxCell>
        <mxCell id="7STw4wD0k3W931YjQMz1-61" value="" style="curved=1;startArrow=none;endArrow=block;exitX=0.5;exitY=1;entryX=0.5;entryY=0;rounded=0;" edge="1" parent="1" source="7STw4wD0k3W931YjQMz1-2" target="7STw4wD0k3W931YjQMz1-4">
          <mxGeometry relative="1" as="geometry">
            <Array as="points" />
          </mxGeometry>
        </mxCell>
        <mxCell id="7STw4wD0k3W931YjQMz1-62" value="" style="curved=1;startArrow=none;endArrow=block;exitX=0.5;exitY=1.02;entryX=0.5;entryY=-0.01;rounded=0;" edge="1" parent="1" source="7STw4wD0k3W931YjQMz1-4" target="7STw4wD0k3W931YjQMz1-5">
          <mxGeometry relative="1" as="geometry">
            <Array as="points" />
          </mxGeometry>
        </mxCell>
        <mxCell id="7STw4wD0k3W931YjQMz1-63" value="" style="curved=1;startArrow=none;endArrow=block;exitX=0.5;exitY=1;entryX=0.5;entryY=0;rounded=0;" edge="1" parent="1" source="7STw4wD0k3W931YjQMz1-5" target="7STw4wD0k3W931YjQMz1-6">
          <mxGeometry relative="1" as="geometry">
            <Array as="points" />
          </mxGeometry>
        </mxCell>
        <mxCell id="7STw4wD0k3W931YjQMz1-64" value="" style="curved=1;startArrow=none;endArrow=block;exitX=0.5;exitY=1.01;entryX=0.5;entryY=0.01;rounded=0;" edge="1" parent="1" source="7STw4wD0k3W931YjQMz1-6" target="7STw4wD0k3W931YjQMz1-7">
          <mxGeometry relative="1" as="geometry">
            <Array as="points" />
          </mxGeometry>
        </mxCell>
      </root>
    </mxGraphModel>
  </diagram>
</mxfile>
